<svg xmlns="http://www.w3.org/2000/svg" width="37.436" height="50" viewBox="0 0 37.436 50"><path d="M2.838,194.673l7.915-2.723v27.739a4.644,4.644,0,0,1-2.837,4.15L0,226.562v-27.74a4.643,4.643,0,0,1,2.838-4.149" transform="translate(0 -183.028)" fill="#00a7f8"/><path d="M576.948,141.863l7.915-2.723v27.739a4.643,4.643,0,0,1-2.838,4.149l-7.915,2.723V146.012a4.643,4.643,0,0,1,2.837-4.149" transform="translate(-547.426 -132.673)" fill="#1a69cd"/><path d="M176.627,370.38v3.447H173.96Z" transform="translate(-165.875 -353.165)" fill="#048bcf"/><path d="M574.12,700.646V697.2l2.667,3.446Z" transform="translate(-547.436 -664.795)" fill="#0f5abd"/><path d="M289.9,2.723,297.812,0V43.128a4.643,4.643,0,0,1-2.837,4.149L287.06,50V6.872A4.642,4.642,0,0,1,289.9,2.723" transform="translate(-273.718)" fill="#0086f5"/><path d="M287.06,373.827V370.38l2.667,3.447Z" transform="translate(-273.718 -353.165)" fill="#006dc7"/><path d="M463.677,697.2v3.446H461.01Z" transform="translate(-439.583 -664.795)" fill="#006dc7"/><path d="M177.922,309.08l3.962,5.12H173.96Z" transform="translate(-165.875 -294.715)" fill="#fff" fill-rule="evenodd"/><path d="M464.972,635.9l3.962,5.12H461.01Z" transform="translate(-439.583 -606.344)" fill="#fff" fill-rule="evenodd"/></svg>